Coordinates
version=1
nRows=16
nColumns=40
inDegrees=yes

Units are S.I. units (second, meters, Newtons, ...)
Angles are in degrees.

endheader
time	pelvis_tilt	pelvis_list	pelvis_rotation	pelvis_tx	pelvis_ty	pelvis_tz	hip_flexion_r	hip_adduction_r	hip_rotation_r	knee_angle_r	knee_angle_r_beta	ankle_angle_r	subtalar_angle_r	mtp_angle_r	hip_flexion_l	hip_adduction_l	hip_rotation_l	knee_angle_l	knee_angle_l_beta	ankle_angle_l	subtalar_angle_l	mtp_angle_l	lumbar_extension	lumbar_bending	lumbar_rotation	arm_flex_r	arm_add_r	arm_rot_r	elbow_flex_r	pro_sup_r	wrist_flex_r	wrist_dev_r	arm_flex_l	arm_add_l	arm_rot_l	elbow_flex_l	pro_sup_l	wrist_flex_l	wrist_dev_l
     44.90750000	     -5.80128779	     -5.20305786	     -5.30507536	      0.89733086	      0.91549317	      0.44145566	     25.77028076	     -5.44657052	     -2.65756002	     64.64286648	     64.64286648	      0.34133061	    -18.67065171	      4.14723446	     21.19524077	     -4.77868915	     -3.37345541	     32.94397140	     32.94397140	     19.43573235	    -17.62976500	      8.85562074	    -10.92238487	      6.19555934	      2.68089638	     12.13842224	    -11.79784670	    -13.66863930	     21.74161393	     47.13248920	      0.00000000	      0.00000000	     29.80474464	    -18.16402751	      5.00740722	     44.21224930	     46.18128230	      0.00000000	      0.00000000
     44.92585714	     -5.72013962	     -5.25224737	     -5.86662743	      0.89632256	      0.91597327	      0.44144709	     26.87954363	     -5.05420669	     -2.52008603	     64.86213406	     64.86213406	      2.13137178	    -18.68438568	      7.81381821	     20.54543842	     -4.91842229	     -3.84923048	     32.70583970	     32.70583970	     19.75383562	    -17.57475404	      8.83227806	    -11.02981486	      6.42326914	      2.24361957	      9.51348229	    -11.69256730	    -14.23339993	     21.07724195	     47.20593158	      0.00000000	      0.00000000	     30.08163356	    -18.86427716	      3.47390713	     46.42737981	     46.37160478	      0.00000000	      0.00000000
     44.94421429	     -5.68091724	     -5.23239932	     -6.46629980	      0.89540104	      0.91703770	      0.44176477	     27.70926426	     -4.77476156	     -2.56195604	     64.09884904	     64.09884904	      3.13583184	    -18.72963686	      7.87089712	     19.73977628	     -5.00420233	     -4.45011227	     32.10035532	     32.10035532	     19.85796251	    -17.51512408	      8.87997907	    -11.03317513	      6.53194137	      2.24704493	      6.83587649	    -11.77739222	    -14.37560339	     20.04470428	     47.24482950	      0.00000000	      0.00000000	     30.96638391	    -19.32410997	      2.88864502	     47.58716835	     46.45097639	      0.00000000	      0.00000000
     44.96257143	     -5.73024437	     -5.27449328	     -7.06798525	      0.89444012	      0.91857098	      0.44253805	     28.38879395	     -4.30353407	     -2.62545579	     62.53285985	     62.53285985	      4.29102861	    -18.66285083	      7.74551003	     18.87526234	     -5.16795572	     -5.04481662	     31.21009323	     31.21009323	     19.87615082	    -17.36727584	      8.94231678	    -10.89785112	      6.70386849	      2.07676172	      4.30335943	    -11.79158126	    -14.53291633	     19.31343385	     47.27152686	      0.00000000	      0.00000000	     31.63983126	    -19.89113913	      2.28081871	     48.71085102	     46.52714238	      0.00000000	      0.00000000
     44.98092857	     -5.88802580	     -5.32637263	     -7.68991083	      0.89333283	      0.92034116	      0.44375417	     28.98571729	     -3.71323552	     -2.67744177	     60.25302553	     60.25302553	      5.48018692	    -18.43224304	      7.43431254	     18.06493100	     -5.37809737	     -5.67530976	     30.19639917	     30.19639917	     19.80360045	    -17.16894169	      9.03433519	    -10.65183269	      6.87142977	      1.85353012	      1.89457129	    -11.77470593	    -14.68516065	     18.71962380	     47.29121970	      0.00000000	      0.00000000	     32.31428164	    -20.61159730	      1.67980033	     49.74890528	     46.59967418	      0.00000000	      0.00000000
     44.99928571	     -5.97318266	     -5.37487655	     -8.34314002	      0.89226058	      0.92252472	      0.44533359	     29.16122406	     -3.10329974	     -2.73930253	     57.05361241	     57.05361241	      5.84543041	    -18.12821224	      4.45674371	     16.96613474	     -5.58889531	     -6.44422544	     28.78005397	     28.78005397	     19.16946695	    -16.97996725	      7.96371498	    -10.70059224	      6.99006968	      1.69828807	     -1.04212567	    -11.70467706	    -15.50224132	     20.23556396	     47.29032890	      0.00000000	      0.00000000	     31.89646961	    -21.03665664	     -1.01031823	     53.91358006	     46.88448971	      0.00000000	      0.00000000
     45.01764286	     -6.08886822	     -5.42706583	     -8.98489077	      0.89108294	      0.92483097	      0.44731259	     29.20261660	     -2.37845504	     -2.70004325	     53.36006927	     53.36006927	      6.74191553	    -17.35467890	      3.51472361	     15.85822298	     -5.77767236	     -7.13086888	     27.29973855	     27.29973855	     18.92802353	    -16.66970484	      8.09775585	    -10.55361548	      7.08521075	      1.64951931	     -3.15858295	    -11.67741800	    -15.63370150	     19.75224172	     47.30656604	      0.00000000	      0.00000000	     32.66331251	    -21.59786332	     -1.63587868	     55.02129244	     46.95726677	      0.00000000	      0.00000000
     45.03600000	     -6.31243662	     -5.40444627	     -9.60361665	      0.88980598	      0.92682211	      0.44952123	     29.02227317	     -1.83365584	     -2.87946234	     48.86616558	     48.86616558	      6.44441416	    -16.33473819	     -0.53925110	     14.87565577	     -5.91294142	     -7.91131478	     25.76781527	     25.76781527	     18.34296882	    -16.41468209	      7.37636549	    -10.36461969	      7.11081318	      1.65665377	     -5.64574066	    -11.56915549	    -16.15695711	     20.71624244	     47.29200526	      0.00000000	      0.00000000	     32.83609225	    -22.00399983	     -3.20976685	     57.85333461	     47.12714008	      0.00000000	      0.00000000
     45.05435714	     -6.48892976	     -5.51717764	    -10.11974586	      0.88854072	      0.92867347	      0.45194965	     28.62098082	     -1.11539524	     -3.05979261	     44.18391271	     44.18391271	      7.07811946	    -14.46368966	     -0.95918243	     13.93495211	     -6.17312742	     -8.51647132	     24.46363734	     24.46363734	     18.14547148	    -16.01392809	      7.53538613	    -10.10386832	      7.30744269	      1.38462221	     -7.26356544	    -11.55852011	    -16.26794456	     20.46960344	     47.29671099	      0.00000000	      0.00000000	     33.51595917	    -22.67080184	     -3.60961057	     58.57436289	     47.17366266	      0.00000000	      0.00000000
     45.07271429	     -6.59104302	     -5.42916142	    -10.64195506	      0.88729859	      0.93000087	      0.45455929	     27.97744295	     -0.75752845	     -3.46260093	     39.21707302	     39.21707302	      6.96234854	    -11.84130065	     -3.43592237	     12.91513439	     -6.20506180	     -9.23586978	     23.09880453	     23.09880453	     17.70828248	    -15.68596964	      6.82611306	    -10.00552072	      7.26052610	      1.47972820	     -9.38985340	    -11.38172031	    -16.69815093	     21.73881623	     47.24960948	      0.00000000	      0.00000000	     33.90010735	    -23.10840532	     -4.79213435	     61.15661460	     47.30790201	      0.00000000	      0.00000000
     45.09107143	     -6.69448764	     -5.41270458	    -11.07563147	      0.88602612	      0.93090015	      0.45748598	     27.20375732	     -0.22643743	     -3.72551527	     34.28457700	     34.28457700	      7.12167357	     -9.02353895	     -3.40835957	     12.06307224	     -6.33934675	     -9.83377187	     22.05836076	     22.05836076	     17.57291171	    -15.25666939	      6.70014975	     -9.84253820	      7.20975169	      1.36246333	    -10.79553638	    -11.21087604	    -16.79807123	     21.83813472	     47.23503051	      0.00000000	      0.00000000	     34.75760830	    -23.61963820	     -5.23529927	     62.22771008	     47.36392951	      0.00000000	      0.00000000
     45.10942857	     -6.88446313	     -5.30857524	    -11.42531146	      0.88481632	      0.93101309	      0.46050747	     26.49326435	      0.21297654	     -3.99189069	     29.59616063	     29.59616063	      7.10008199	     -6.22952190	     -2.87927333	     11.47233167	     -6.39740865	    -10.31154122	     21.30300741	     21.30300741	     17.57263678	    -14.91754390	      6.51082394	     -9.46782442	      7.15245140	      1.31392530	    -12.02674317	    -11.00944064	    -16.87866003	     21.91677436	     47.22199504	      0.00000000	      0.00000000	     35.56997503	    -24.01965144	     -5.58905256	     63.24957797	     47.41147582	      0.00000000	      0.00000000
     45.12778571	     -6.77127199	     -5.08376413	    -11.71182983	      0.88391142	      0.93081009	      0.46346507	     25.63452187	      0.21705553	     -4.87695374	     25.69009890	     25.69009890	      7.55728159	     -2.05704116	     -1.32648157	     10.55309937	     -6.26347585	    -10.90816493	     20.47903607	     20.47903607	     17.07207157	    -14.71263599	      4.74577466	     -9.56809364	      6.91473273	      1.30241090	    -13.91853975	    -10.77192761	    -17.14493514	     24.49979440	     47.07811819	      0.00000000	      0.00000000	     35.84119274	    -24.24916331	     -6.91341831	     66.04281377	     47.56381472	      0.00000000	      0.00000000
     45.14614286	     -6.72466617	     -4.89912366	    -11.92218113	      0.88308319	      0.93016321	      0.46669003	     24.84635255	      0.43315581	     -5.28308799	     22.20957071	     22.20957071	      7.34304307	      0.57345076	     -0.36338982	      9.91153110	     -6.20648080	    -11.27592922	     20.09918866	     20.09918866	     17.26488783	    -14.45722467	      4.41505500	     -9.42315116	      6.75316588	      1.41072664	    -14.74318181	    -10.55681606	    -17.09024106	     24.47855832	     47.06031443	      0.00000000	      0.00000000	     36.75161839	    -24.40904613	     -7.15112388	     66.93752323	     47.60403946	      0.00000000	      0.00000000
     45.16450000	     -6.59945362	     -4.65143185	    -12.08249293	      0.88251550	      0.92921623	      0.46994998	     24.21345320	      0.44879564	     -5.93279388	     19.70260527	     19.70260527	      7.25335124	      3.23474791	      0.67139224	      9.23859743	     -6.08017403	    -11.67638275	     19.81402424	     19.81402424	     17.47572992	    -14.14750227	      3.86061549	     -9.34652219	      6.53095714	      1.60135623	    -15.51118874	    -10.33677246	    -17.04575101	     24.74991416	     47.02920939	      0.00000000	      0.00000000	     37.52958173	    -24.39686176	     -7.51537864	     68.11356318	     47.65693227	      0.00000000	      0.00000000
     45.18285714	     -6.64948807	     -4.19083495	    -12.21401358	      0.88188221	      0.92763649	      0.47337144	     24.22183128	      0.34658805	     -5.88745362	     18.41982327	     18.41982327	      7.09795245	      4.23562503	      1.11095802	      8.96161645	     -5.76928653	    -11.89825385	     19.81427127	     19.81427127	     17.77316345	    -14.10403718	      3.55407798	     -8.97407802	      6.08253980	      1.57324338	    -15.88743485	    -10.10582141	    -17.02348598	     24.80322876	     47.01832275	      0.00000000	      0.00000000	     38.35326249	    -24.66337604	     -7.77855175	     68.73147817	     47.69240180	      0.00000000	      0.00000000
